<svg width="640" height="480" xmlns="http://www.w3.org/2000/svg" xmlns:svg="http://www.w3.org/2000/svg">
 <!-- Created with SVG-edit - https://github.com/SVG-Edit/svgedit-->
 <g class="layer">
  <title>Layer 1</title>
  <ellipse cx="243" cy="95" fill="#0000ff" id="svg_1" rx="67" ry="87" stroke="#000000" transform="matrix(1 0 0 1 0 0)"/>
  <rect fill="#00ff7f" height="52" id="svg_2" stroke="#000000" transform="matrix(1 0 0 1 0 0)" width="96" x="33" y="149"/>
  <path d="m325,98c0,0 89,-70 118,-20c29,50 -65,155 91,65c156,-90 18,406 -5,145c-23,-261 -121,23 -121,23c0,0 -62,57 -62,57c0,0 162,-343 162,-343c0,0 -123,110 -123,110c0,0 -60,-37 -60,-37z" fill="#ff7f00" id="svg_3" stroke="#000000"/>
  <text fill="#000000" font-family="Serif" font-size="6  is a" id="svg_4" letter-spacing="0" stroke="#000000" stroke-width="0" text-anchor="middle" transform="matrix(2.6256 0 0 3.12651 -33.2866 -570.193)" x="118.08" xml:space="preserve" y="252.96">this is an image</text>
  <path d="m164.6,132.68c-6.37,-0.49 -17.83,6.83 -15.27,-5.68c4.43,-7.68 16.42,-4.03 15.06,4.92l0.16,0.56l0.06,0.2l0,0zm15.4,-16.6c-6.08,10.41 -19.77,11.15 -30.05,15.03c-4.76,2.73 -24.06,4.51 -16.71,-3.83c10.5,-6.96 23.41,-8.64 35.22,-12.43c3.81,-0.89 8.22,-1.25 11.54,1.23zm-31.43,11.01c-4.64,-15.91 -9.27,-31.82 -13.91,-47.73c5.67,-7.71 18.18,-4.37 16.44,5.91c3.6,12.37 7.21,24.74 10.81,37.11m-5,8.37c20.25,70.96 43.8,141.09 73.22,208.8m-67.88,-210.65c20.46,66.78 41.39,133.63 69.63,197.61c0.39,4.96 13.28,19.82 1.59,15.98c-3.64,-1.74 -9.84,-0.56 -10.52,-5.67c-27.58,-66.67 -51.5,-134.85 -71.71,-204.11" fill="#7f003f" id="svg_5" stroke="#000000" transform="matrix(1 0 0 1 0 0)"/>
 </g>
</svg>